<svg xmlns="http://www.w3.org/2000/svg" width="64" height="64" viewBox="0 0 64 64">
  <defs>
    <linearGradient id="grad1" x1="0%" y1="0%" x2="100%" y2="100%">
      <stop offset="0%" style="stop-color:#3B82F6;stop-opacity:1" />
      <stop offset="100%" style="stop-color:#1E40AF;stop-opacity:1" />
    </linearGradient>
  </defs>
  <circle cx="32" cy="32" r="30" fill="url(#grad1)" />
  
  <!-- Book -->
  <path d="M20 18L20 46L44 46L44 18L20 18Z" fill="#ffffff" />
  <path d="M20 18L20 46L22 46L22 18L20 18Z" fill="#e5e5e5" />
  <path d="M22 20L42 20L42 44L22 44Z" fill="#f3f4f6" />
  
  <!-- Book lines -->
  <path d="M26 26L38 26" stroke="#3B82F6" stroke-width="1.5" />
  <path d="M26 30L38 30" stroke="#3B82F6" stroke-width="1.5" />
  <path d="M26 34L38 34" stroke="#3B82F6" stroke-width="1.5" />
  <path d="M26 38L34 38" stroke="#3B82F6" stroke-width="1.5" />
  
  <!-- Coffee cup -->
  <path d="M38 32C38 28 40 26 44 26L44 38C40 38 38 36 38 32Z" fill="#D97706" />
  <path d="M38 32C38 28 40 26 44 26" stroke="#ffffff" stroke-width="1" />
  <path d="M38 32C38 36 40 38 44 38" stroke="#ffffff" stroke-width="1" />
  
  <!-- Steam -->
  <path d="M42 24C42 24 43 22 42 20" stroke="#ffffff" stroke-width="1" stroke-linecap="round" />
  <path d="M44 23C44 23 45 21 44 19" stroke="#ffffff" stroke-width="1" stroke-linecap="round" />
</svg> 